<svg width="350" height="370" viewBox="0 0 288 328" fill="none" xmlns="http://www.w3.org/2000/svg">
<path d="M139.086 1.77205C142.136 0.0514761 145.864 0.0514809 148.914 1.77206L215.857 39.5392L282.037 78.6307C285.052 80.4116 286.915 83.6398 286.95 87.1413L287.715 164L286.95 240.859C286.915 244.36 285.052 247.588 282.037 249.369L215.857 288.461L148.914 326.228C145.864 327.949 142.136 327.949 139.086 326.228L72.1425 288.461L5.96326 249.369C2.9483 247.588 1.08451 244.36 1.04968 240.859L0.285004 164L1.04968 87.1413C1.08452 83.6398 2.94831 80.4116 5.96327 78.6307L72.1425 39.5392L139.086 1.77205Z" fill="#0093D3"/>
</svg>
