<svg  width="350" height="370" viewBox="0 0 288 328" fill="none" xmlns="http://www.w3.org/2000/svg">
    <path d="M139.086 1.77205C142.136 0.0514761 145.864 0.0514809 148.914 1.77206L215.857 39.5392L282.037 78.6307C285.052 80.4116 286.915 83.6398 286.95 87.1413L287.715 164L286.95 240.859C286.915 244.36 285.052 247.588 282.037 249.369L215.857 288.461L148.914 326.228C145.864 327.949 142.136 327.949 139.086 326.228L72.1425 288.461L5.96326 249.369C2.94831 247.588 1.08451 244.36 1.04968 240.859L0.285004 164L1.04968 87.1413C1.08451 83.6398 2.94831 80.4116 5.96327 78.6307L72.1425 39.5392L139.086 1.77205Z" fill="#0093D3"/>
    <path d="M139.578 12.643C142.323 11.0945 145.677 11.0945 148.422 12.643L210.994 47.9433L211.011 47.9532L272.868 84.4917C275.581 86.0946 277.259 88.9999 277.29 92.1513L278.005 163.99V164.01L277.29 235.849C277.259 239 275.581 241.905 272.868 243.508L211.011 280.047L210.994 280.057L148.422 315.357C145.677 316.905 142.323 316.905 139.578 315.357L77.0061 280.057L76.9889 280.047L15.1321 243.508C12.4187 241.905 10.7412 239 10.7099 235.849L9.99495 164.01V163.99L10.7099 92.1513C10.7412 88.9999 12.4187 86.0946 15.1321 84.4917L76.9976 47.9483L77.0061 47.9433L139.578 12.643Z" fill="#0093D3" stroke="white" stroke-width="2"/>
</svg>