<svg width="162" height="60" viewBox="0 0 162 60" fill="none" xmlns="http://www.w3.org/2000/svg">
<rect width="162" height="60" rx="10" fill="white"/>
<g clip-path="url(#clip0_30_33)">
<path fill-rule="evenodd" clip-rule="evenodd" d="M17.9471 27.2644C17.9417 30.2637 17.9564 31.0201 19.4065 33.3008L20.9565 35.3576C21.1195 35.5406 21.2041 35.5814 21.3355 35.7487C21.8334 36.3825 22.1853 36.6545 22.762 37.2464C24.4959 39.025 25.1757 39.3552 24.1162 42.1988C23.9938 42.5275 23.7334 43.0327 23.6751 43.3136C23.8083 43.406 23.7558 43.3725 23.9374 43.4507L24.8818 43.7952L25.2711 43.9243C25.5798 43.1244 26.2055 41.5438 26.265 41.2729C26.4523 40.416 26.4817 39.5409 26.1522 38.6852C25.735 37.602 24.8327 36.8183 24.0409 36.0057C23.6009 35.5541 23.1304 35.1487 22.7399 34.6513C22.604 34.4779 22.4665 34.3646 22.3324 34.2217L20.8758 32.2885C19.6116 30.2861 19.7263 29.673 19.7309 27.2675C19.7321 26.6914 19.9426 25.702 20.1006 25.1444C20.9986 21.9721 22.5082 20.3603 25.3669 18.8276L27.3187 17.9063C29.4308 17.079 30.9172 17.1534 33.1355 17.4805C35.4411 17.8207 36.3481 17.9355 38.371 19.1809C38.8507 19.4764 39.0983 19.6132 39.4687 20.0332C40.3405 21.0219 41.3846 22.9982 41.3862 24.3476C41.3866 24.8204 41.3672 25.3286 41.4372 25.796C41.504 26.2429 41.6411 26.72 41.7388 27.1646C42.0633 28.6392 42.4391 29.1012 43.275 30.2691C43.7768 30.97 44.3117 31.6154 44.7617 32.3544C44.8386 32.4804 44.9688 32.6611 45.0939 32.843C44.7169 33.0206 44.4326 33.2537 44.1692 33.6657C44.1426 33.7073 44.1213 33.7439 44.0978 33.7874C43.7829 34.3789 43.7594 35.0108 43.9008 35.6535C43.9096 35.6932 43.9197 35.734 43.9309 35.7756C43.8417 35.8989 43.7671 36.0361 43.708 36.1872C43.5265 36.6503 43.5384 37.1146 43.7435 37.5681C43.7567 37.597 43.771 37.6282 43.786 37.661C43.742 37.7608 43.7022 37.866 43.6655 37.9816C43.455 38.6458 43.5535 39.3479 43.5948 40.0284C43.6045 40.1856 43.6242 40.5678 43.5925 40.8032C43.4218 40.8152 43.1854 40.7924 43.0776 40.779C41.3572 40.5586 39.7078 40.604 38.0442 41.1292C35.9661 41.7854 35.6555 43.2804 34.6385 44.9049C34.5296 45.0787 34.0259 46.3784 33.6724 47.0361C34.4867 47.3258 35.0715 47.5243 35.1541 47.5289C35.5126 47.1367 35.832 46.3587 36.1519 45.8474C37.1218 44.298 37.2678 43.2407 38.5826 42.8257C39.9898 42.3815 41.3788 42.3553 42.8505 42.5441C46.4791 43.0088 45.0623 39.4789 45.367 38.5183C45.5938 37.8028 46.002 38.2313 45.3701 36.8356C46.4157 36.3933 45.3242 35.2797 45.6741 34.6216C45.8336 34.3719 45.9796 34.4417 46.2686 34.2768C47.9067 33.3412 46.8974 32.433 46.2867 31.4301C45.7263 30.5095 45.3249 30.0691 44.7266 29.2341C44.0275 28.2581 43.754 28.0219 43.4813 26.7828C43.1491 25.2719 43.1715 25.7756 43.1699 24.3457C43.168 22.4499 41.886 20.0802 40.8079 18.8576C40.2903 18.2704 39.9925 18.0881 39.3073 17.6662C36.9785 16.2325 35.9325 16.0937 33.3962 15.7196C30.8658 15.3458 29.0874 15.2884 26.608 16.2721L24.5623 17.2377C21.3413 18.9566 19.4432 20.9152 18.3829 24.6605C18.2071 25.2808 17.9471 26.5477 17.946 27.264L17.9471 27.2644Z" fill="#0093D3"/>
<path d="M25.5427 34.8447L30.8403 36.166L31.5197 33.4218L34.2704 30.2714L40.9941 32.4057" stroke="#B2B3B3" stroke-width="0.510499" stroke-miterlimit="22.9256"/>
<path fill-rule="evenodd" clip-rule="evenodd" d="M31.5703 32.8253C31.94 32.8253 32.2393 33.1239 32.2393 33.4927C32.2393 33.8614 31.94 34.16 31.5703 34.16C31.201 34.16 30.9013 33.8614 30.9013 33.4927C30.9013 33.1243 31.201 32.8253 31.5703 32.8253Z" stroke="#9D9E9E" stroke-width="1.021" stroke-miterlimit="22.9256"/>
<path fill-rule="evenodd" clip-rule="evenodd" d="M31.5703 32.8253C31.94 32.8253 32.2393 33.1239 32.2393 33.4927C32.2393 33.8614 31.94 34.16 31.5703 34.16C31.201 34.16 30.9013 33.8614 30.9013 33.4927C30.9013 33.1243 31.201 32.8253 31.5703 32.8253Z" fill="#FEFEFE"/>
<path fill-rule="evenodd" clip-rule="evenodd" d="M25.5813 34.1874C25.9506 34.1874 26.2503 34.4864 26.2503 34.8547C26.2503 35.2235 25.9506 35.5221 25.5813 35.5221C25.212 35.5221 24.9123 35.2235 24.9123 34.8547C24.9123 34.4864 25.212 34.1874 25.5813 34.1874Z" stroke="#9D9E9E" stroke-width="1.021" stroke-miterlimit="22.9256"/>
<path fill-rule="evenodd" clip-rule="evenodd" d="M25.5813 34.1874C25.9506 34.1874 26.2503 34.4864 26.2503 34.8547C26.2503 35.2235 25.9506 35.5221 25.5813 35.5221C25.212 35.5221 24.9123 35.2235 24.9123 34.8547C24.9123 34.4864 25.212 34.1874 25.5813 34.1874Z" fill="#FEFEFE"/>
<path fill-rule="evenodd" clip-rule="evenodd" d="M30.8353 35.5502C31.2045 35.5502 31.5043 35.8492 31.5043 36.2176C31.5043 36.586 31.2049 36.885 30.8353 36.885C30.4656 36.885 30.1663 36.586 30.1663 36.2176C30.1663 35.8492 30.4656 35.5502 30.8353 35.5502Z" stroke="#9D9E9E" stroke-width="1.021" stroke-miterlimit="22.9256"/>
<path fill-rule="evenodd" clip-rule="evenodd" d="M30.8353 35.5502C31.2045 35.5502 31.5043 35.8492 31.5043 36.2176C31.5043 36.586 31.2049 36.885 30.8353 36.885C30.4656 36.885 30.1663 36.586 30.1663 36.2176C30.1663 35.8492 30.4656 35.5502 30.8353 35.5502Z" fill="#FEFEFE"/>
<path fill-rule="evenodd" clip-rule="evenodd" d="M34.3024 29.6807C34.6717 29.6807 34.9714 29.9793 34.9714 30.3481C34.9714 30.7168 34.6717 31.0155 34.3024 31.0155C33.9332 31.0155 33.6334 30.7168 33.6334 30.3481C33.6334 29.9797 33.9332 29.6807 34.3024 29.6807V29.6807Z" stroke="#9D9E9E" stroke-width="1.021" stroke-miterlimit="22.9256"/>
<path fill-rule="evenodd" clip-rule="evenodd" d="M34.3024 29.6807C34.6717 29.6807 34.9714 29.9793 34.9714 30.3481C34.9714 30.7168 34.6717 31.0155 34.3024 31.0155C33.9332 31.0155 33.6334 30.7168 33.6334 30.3481C33.6334 29.9797 33.9332 29.6807 34.3024 29.6807Z" fill="#FEFEFE"/>
<path fill-rule="evenodd" clip-rule="evenodd" d="M41.0273 31.7245C41.3969 31.7245 41.6963 32.0231 41.6963 32.3918C41.6963 32.7602 41.3969 33.0592 41.0273 33.0592C40.658 33.0592 40.3583 32.7606 40.3583 32.3918C40.3583 32.0231 40.658 31.7245 41.0273 31.7245Z" stroke="#9D9E9E" stroke-width="1.021" stroke-miterlimit="22.9256"/>
<path fill-rule="evenodd" clip-rule="evenodd" d="M41.0273 31.7245C41.3969 31.7245 41.6963 32.0231 41.6963 32.3918C41.6963 32.7602 41.3969 33.0592 41.0273 33.0592C40.658 33.0592 40.3583 32.7606 40.3583 32.3918C40.3583 32.0231 40.658 31.7245 41.0273 31.7245Z" fill="#FEFEFE"/>
<path fill-rule="evenodd" clip-rule="evenodd" d="M32.5537 10C32.7889 10 33.023 10.005 33.2563 10.0127C22.4304 10.3699 13.7638 19.2356 13.7638 30.1219C13.7638 41.2352 22.795 50.2438 33.9354 50.2438C44.8485 50.2438 53.7357 41.5985 54.0942 30.7993C54.1015 31.032 54.1069 31.2655 54.1069 31.5002C54.1069 43.3741 44.4572 53.0004 32.5541 53.0004C20.6509 53.0004 11.0008 43.3744 11.0008 31.5002C11.0008 19.6263 20.6505 10.0004 32.5541 10.0004L32.5537 10Z" fill="#D9DADA"/>
<path fill-rule="evenodd" clip-rule="evenodd" d="M58.2772 19.718H109.116V35.504H58.2772V19.718Z" fill="#D9DADA"/>
<path d="M66.3077 33.4815C64.486 33.4815 63.058 32.9513 62.0298 31.8944C61.0011 30.837 60.4855 29.4102 60.4855 27.6139C60.4855 25.8098 61.0011 24.3776 62.0325 23.323C63.0665 22.2684 64.4914 21.7413 66.3081 21.7413C68.1088 21.7413 69.5314 22.2661 70.5732 23.3157C71.6173 24.3653 72.1384 25.7998 72.1384 27.6143C72.1384 29.4106 71.6227 30.8374 70.5941 31.8947C69.5627 32.952 68.1351 33.4818 66.3081 33.4818L66.3077 33.4815ZM69.1089 27.6062C69.1089 26.4017 68.8524 25.4762 68.3417 24.8327C67.8315 24.1892 67.1551 23.8659 66.3154 23.8659C65.4552 23.8659 64.7738 24.1915 64.2682 24.8427C63.7656 25.4943 63.5142 26.4171 63.5142 27.6135C63.5142 28.8103 63.7656 29.7331 64.2736 30.382C64.7788 31.0305 65.4602 31.3565 66.3154 31.3565C67.1397 31.3565 67.8106 31.0386 68.3313 30.4024C68.8493 29.7666 69.1085 28.8334 69.1085 27.6058L69.1089 27.6062ZM77.2788 29.5732V33.2487H74.3636V21.9736H79.1599C80.6629 21.9736 81.7954 22.2838 82.5544 22.9042C83.3138 23.5245 83.692 24.4007 83.692 25.5305C83.692 26.7015 83.2798 27.6682 82.4559 28.4308C81.6293 29.1933 80.5099 29.5732 79.0923 29.5732H77.2784H77.2788ZM77.2788 24.0829V27.4482H78.1131C79.1653 27.4482 79.8571 27.2933 80.1862 26.9804C80.5153 26.6676 80.6783 26.2075 80.6783 25.6002C80.6783 25.228 80.5644 24.9205 80.3365 24.6747C80.1082 24.4316 79.839 24.2713 79.528 24.1965C79.2171 24.1218 78.6338 24.0829 77.779 24.0829H77.2788ZM94.5101 24.1603H90.9785V33.2487H88.0633V24.1603H84.534V21.9736H94.5101V24.1603ZM101.076 33.4815C99.2546 33.4815 97.8266 32.9513 96.7984 31.8944C95.7697 30.837 95.2541 29.4102 95.2541 27.6139C95.2541 25.8098 95.7697 24.3776 96.8011 23.323C97.8351 22.2684 99.26 21.7413 101.077 21.7413C102.877 21.7413 104.3 22.2661 105.342 23.3157C106.386 24.3653 106.907 25.7998 106.907 27.6143C106.907 29.4106 106.391 30.8374 105.363 31.8947C104.331 32.952 102.904 33.4818 101.077 33.4818L101.076 33.4815ZM103.877 27.6062C103.877 26.4017 103.621 25.4762 103.11 24.8327C102.6 24.1892 101.924 23.8659 101.084 23.8659C100.224 23.8659 99.5424 24.1915 99.0368 24.8427C98.5342 25.4943 98.2828 26.4171 98.2828 27.6135C98.2828 28.8103 98.5342 29.7331 99.0422 30.382C99.5474 31.0305 100.229 31.3565 101.084 31.3565C101.908 31.3565 102.579 31.0386 103.1 30.4024C103.618 29.7666 103.877 28.8334 103.877 27.6058L103.877 27.6062Z" fill="#0093D3"/>
<path fill-rule="evenodd" clip-rule="evenodd" d="M148 19.718H109.116V35.504H148V19.718Z" fill="#0093D3"/>
<path d="M122.896 24.1603H119.364V33.2488H116.449V24.1603H112.92V21.9737H122.896V24.1603ZM127.565 29.5732V33.2488H124.65V21.9737H129.446C130.949 21.9737 132.081 22.2838 132.84 22.9042C133.6 23.5246 133.978 24.4008 133.978 25.5305C133.978 26.7015 133.566 27.6682 132.742 28.4308C131.915 29.1933 130.796 29.5732 129.378 29.5732H127.564H127.565ZM127.565 24.0829V27.4482H128.399C129.451 27.4482 130.143 27.2933 130.472 26.9804C130.801 26.6676 130.964 26.2075 130.964 25.6002C130.964 25.228 130.85 24.9206 130.623 24.6747C130.394 24.4316 130.125 24.2713 129.814 24.1965C129.503 24.1218 128.92 24.0829 128.065 24.0829H127.565ZM144.195 24.1603H138.958V33.2488H136.043V21.9737H144.195V24.1603H144.195Z" fill="#FEFEFE"/>
<path d="M67.7445 40.1594L67.3154 40.5659C67.0238 40.2592 66.6962 40.1058 66.3312 40.1058C66.0237 40.1058 65.7638 40.2106 65.5532 40.4198C65.342 40.6291 65.2369 40.8868 65.2369 41.1932C65.2369 41.407 65.284 41.5966 65.3771 41.7623C65.4702 41.9283 65.6023 42.0586 65.7726 42.153C65.9438 42.2478 66.133 42.2944 66.3424 42.2944C66.5201 42.2944 66.6827 42.2616 66.8299 42.1954C66.9778 42.1291 67.1396 42.0085 67.3154 41.8343L67.731 42.2674C67.4938 42.499 67.269 42.66 67.0577 42.7491C66.8465 42.8392 66.6047 42.8839 66.3335 42.8839C65.8337 42.8839 65.4238 42.7259 65.1052 42.4096C64.7865 42.094 64.6277 41.6883 64.6277 41.1947C64.6277 40.8745 64.7 40.5909 64.8456 40.342C64.9905 40.0935 65.1979 39.8939 65.4686 39.7424C65.7386 39.5914 66.0299 39.5151 66.3428 39.5151C66.6077 39.5151 66.8631 39.571 67.1095 39.6827C67.3548 39.7945 67.5668 39.9528 67.7445 40.1586V40.1594ZM68.2857 39.5964H70.0413V40.1952H68.8948V40.7716H70.0413V41.3612H68.8948V42.2054H70.0413V42.8042H68.2857V39.5968V39.5964ZM70.6052 39.5964H71.2553C71.6068 39.5964 71.8598 39.6284 72.0151 39.6935C72.1704 39.7582 72.2932 39.863 72.3828 40.0075C72.4724 40.152 72.5172 40.3254 72.5172 40.5277C72.5172 40.752 72.4581 40.9381 72.3403 41.086C72.2229 41.234 72.0634 41.3376 71.861 41.3958C71.7424 41.4294 71.5265 41.4459 71.2136 41.4459V42.8038H70.6044V39.5964H70.6052ZM71.2144 40.8518H71.411C71.5655 40.8518 71.6721 40.8406 71.7327 40.8194C71.793 40.797 71.8401 40.7612 71.8753 40.7107C71.9096 40.6599 71.9266 40.599 71.9266 40.5269C71.9266 40.4025 71.878 40.3119 71.781 40.2553C71.7107 40.2129 71.5794 40.1913 71.3886 40.1913H71.2144V40.8522V40.8518ZM73.1132 42.8042V39.5968H73.6208C73.9155 39.5968 74.1307 39.6153 74.267 39.6534C74.4605 39.7047 74.6139 39.7991 74.7282 39.937C74.8426 40.0754 74.9001 40.2387 74.9001 40.4264C74.9001 40.5485 74.8738 40.6595 74.8225 40.7589C74.7711 40.8587 74.6865 40.9527 74.5702 41.0394C74.7649 41.1311 74.9078 41.2448 74.9978 41.3827C75.0882 41.5195 75.133 41.6821 75.133 41.8698C75.133 42.0501 75.0859 42.2139 74.9928 42.3618C74.8986 42.5098 74.7781 42.6207 74.6301 42.694C74.4822 42.7676 74.2786 42.8042 74.0183 42.8042H73.1136H73.1132ZM73.7224 40.1775V40.8568H73.8591C74.0117 40.8568 74.1249 40.8256 74.199 40.762C74.2728 40.6996 74.3091 40.614 74.3091 40.5058C74.3091 40.4052 74.274 40.3254 74.2041 40.2661C74.1338 40.2071 74.0272 40.1775 73.8838 40.1775H73.7224ZM73.7224 41.4016V42.2235H73.8777C74.1349 42.2235 74.3087 42.1915 74.3987 42.1275C74.4883 42.0636 74.5332 41.9703 74.5332 41.8482C74.5332 41.7106 74.481 41.6012 74.3756 41.5214C74.2705 41.4421 74.0959 41.4016 73.8518 41.4016H73.7228H73.7224ZM78.0575 39.5968V42.8042H77.4483V40.7959L76.237 42.8042H75.7109V39.5968H76.32V41.6706L77.5503 39.5968H78.0578H78.0575ZM81.7478 40.1597L81.3187 40.5662C81.0271 40.2595 80.6995 40.1062 80.3345 40.1062C80.027 40.1062 79.7671 40.211 79.5566 40.4202C79.3453 40.6294 79.2402 40.8872 79.2402 41.1935C79.2402 41.4074 79.2873 41.597 79.3804 41.7627C79.4735 41.9287 79.6056 42.059 79.776 42.1534C79.9471 42.2481 80.1363 42.2948 80.3457 42.2948C80.5234 42.2948 80.686 42.262 80.8332 42.1957C80.9811 42.1295 81.1429 42.0089 81.3187 41.8347L81.7343 42.2678C81.4972 42.4994 81.2723 42.6604 81.0611 42.7494C80.8498 42.8396 80.608 42.8843 80.3368 42.8843C79.837 42.8843 79.4272 42.7263 79.1085 42.41C78.7898 42.0944 78.6311 41.6887 78.6311 41.1951C78.6311 40.8749 78.7033 40.5913 78.8489 40.3424C78.9938 40.0938 79.2012 39.8943 79.472 39.7428C79.742 39.5918 80.0332 39.5155 80.3461 39.5155C80.6111 39.5155 80.8664 39.5714 81.1128 39.6831C81.3581 39.7948 81.5702 39.9532 81.7478 40.159V40.1597ZM84.5819 39.5968H85.2003L86.2393 42.2327H86.5963V43.2823H86.0049V42.8042H83.7839V43.2823H83.1929V42.2327H83.5505L84.5823 39.5968H84.5819ZM84.8967 40.4406L84.1906 42.2327H85.6024L84.8963 40.4406H84.8967ZM89.0734 42.8045L88.1815 40.4533L87.2761 42.8045H86.6268L87.8686 39.5972H88.4893L89.7277 42.8045H89.073H89.0734ZM91.9916 39.5972V42.8045H91.3825V41.5091H91.2295L90.5802 42.8045H89.9116L90.6409 41.4085C90.219 41.2887 90.0078 41.0086 90.0078 40.5693C90.0078 40.4121 90.0302 40.2761 90.0742 40.1605C90.119 40.0441 90.1816 39.9459 90.2646 39.8654C90.3465 39.7852 90.4415 39.7255 90.5505 39.687C90.659 39.6492 90.7448 39.6265 90.8089 39.6207C90.8734 39.6145 91.0515 39.6072 91.3439 39.5968H91.9916V39.5972ZM91.3825 40.9196V40.196H91.2145C91.0615 40.196 90.951 40.2048 90.8838 40.2237C90.8174 40.2414 90.7621 40.2807 90.72 40.3412C90.6775 40.4017 90.6567 40.4761 90.6567 40.5647C90.6567 40.6965 90.6992 40.789 90.7838 40.8417C90.868 40.8941 91.0039 40.92 91.1897 40.92H91.3821L91.3825 40.9196ZM93.9739 42.8045V39.5972H94.4815C94.7762 39.5972 94.9914 39.6157 95.1277 39.6538C95.3212 39.7051 95.4746 39.7995 95.5889 39.9374C95.7033 40.0757 95.7608 40.2391 95.7608 40.4268C95.7608 40.5489 95.7345 40.6599 95.6832 40.7593C95.6318 40.8591 95.5472 40.9531 95.4309 41.0398C95.6256 41.1315 95.7685 41.2452 95.8585 41.3831C95.9489 41.5199 95.9937 41.6825 95.9937 41.8702C95.9937 42.0505 95.9466 42.2142 95.8535 42.3622C95.7593 42.5102 95.6388 42.6211 95.4908 42.6943C95.3429 42.7679 95.1393 42.8045 94.879 42.8045H93.9743H93.9739ZM94.5831 40.1778V40.8572H94.7198C94.8724 40.8572 94.9856 40.8259 95.0597 40.7624C95.1335 40.7 95.1698 40.6144 95.1698 40.5061C95.1698 40.4056 95.1347 40.3258 95.0648 40.2665C94.9945 40.2075 94.8878 40.1778 94.7445 40.1778H94.5831ZM94.5831 41.402V42.2239H94.7384C94.9956 42.2239 95.1694 42.1919 95.2594 42.1279C95.349 42.064 95.3939 41.9707 95.3939 41.8486C95.3939 41.711 95.3417 41.6016 95.2363 41.5218C95.1312 41.4425 94.9566 41.402 94.7125 41.402H94.5835H94.5831ZM96.5716 39.5972H97.2217C97.5732 39.5972 97.8262 39.6292 97.9815 39.6943C98.1367 39.759 98.2596 39.8638 98.3492 40.0083C98.4388 40.1528 98.4836 40.3262 98.4836 40.5285C98.4836 40.7527 98.4245 40.9388 98.3067 41.0868C98.1893 41.2348 98.0297 41.3384 97.8273 41.3966C97.7088 41.4301 97.4928 41.4467 97.18 41.4467V42.8045H96.5708V39.5972H96.5716ZM97.1807 40.8525H97.3773C97.5318 40.8525 97.6385 40.8414 97.6991 40.8202C97.7593 40.7978 97.8065 40.762 97.8416 40.7115C97.876 40.6606 97.893 40.5998 97.893 40.5277C97.893 40.4033 97.8443 40.3127 97.7474 40.2561C97.6771 40.2137 97.5457 40.1921 97.3549 40.1921H97.1807V40.8529V40.8525ZM100.067 39.5972H100.683L101.921 42.8045H101.284L101.034 42.1433H99.7158L99.4589 42.8045H98.8224L100.067 39.5972H100.067ZM100.376 40.4499L99.9402 41.5542H100.81L100.376 40.4499H100.376ZM103.798 41.3978H103.594C103.299 41.3978 103.081 41.3827 102.941 41.3523C102.801 41.3218 102.666 41.2563 102.539 41.1573C102.412 41.0575 102.321 40.9377 102.269 40.7963C102.217 40.6549 102.191 40.4672 102.191 40.2333V39.5976H102.813V40.2241C102.813 40.4422 102.852 40.594 102.93 40.6795C103.009 40.7655 103.175 40.8082 103.43 40.8082H103.799V39.5976H104.417V42.8049H103.799V41.3978H103.798ZM105.16 39.5972H106.916V40.196H105.769V40.7724H106.916V41.3619H105.769V42.2061H106.916V42.8049H105.16V39.5976V39.5972ZM109.826 39.5972V42.8045H109.217V40.7963L108.006 42.8045H107.48V39.5972H108.089V41.6709L109.319 39.5972H109.827H109.826ZM107.775 38.7352H108.259C108.297 38.7946 108.35 38.8393 108.417 38.8693C108.484 38.8994 108.567 38.914 108.664 38.914C108.763 38.914 108.853 38.8967 108.932 38.8616C108.985 38.8385 109.03 38.7961 109.07 38.7352H109.553C109.526 38.9198 109.437 39.0678 109.287 39.1799C109.138 39.2916 108.93 39.3471 108.662 39.3471C108.481 39.3471 108.331 39.3217 108.209 39.272C108.087 39.2219 107.99 39.1506 107.915 39.0577C107.841 38.9645 107.794 38.8574 107.776 38.7352H107.775ZM113.33 39.517C113.784 39.517 114.176 39.6816 114.502 40.0099C114.83 40.3385 114.993 40.7389 114.993 41.2109C114.993 41.679 114.832 42.0751 114.509 42.3992C114.187 42.7232 113.795 42.8855 113.334 42.8855C112.852 42.8855 112.451 42.7186 112.132 42.3857C111.812 42.0532 111.653 41.6575 111.653 41.1997C111.653 40.8938 111.727 40.6113 111.875 40.3539C112.024 40.0969 112.228 39.8931 112.488 39.7428C112.749 39.5926 113.029 39.517 113.329 39.517H113.33ZM113.321 40.1158C113.025 40.1158 112.775 40.2195 112.574 40.4256C112.371 40.6317 112.271 40.8941 112.271 41.2124C112.271 41.5669 112.398 41.8474 112.652 42.0539C112.85 42.2154 113.076 42.2959 113.332 42.2959C113.621 42.2959 113.867 42.1907 114.07 41.9815C114.274 41.7723 114.375 41.5145 114.375 41.2082C114.375 40.903 114.273 40.6445 114.068 40.4329C113.863 40.2218 113.614 40.1158 113.321 40.1158ZM115.57 39.5976H116.221C116.572 39.5976 116.825 39.6295 116.98 39.6947C117.136 39.7594 117.258 39.8642 117.348 40.0087C117.438 40.1532 117.482 40.3266 117.482 40.5289C117.482 40.7531 117.423 40.9392 117.306 41.0872C117.188 41.2352 117.029 41.3388 116.826 41.397C116.708 41.4305 116.492 41.4471 116.179 41.4471V42.8049H115.57V39.5976H115.57ZM116.18 40.8529H116.376C116.531 40.8529 116.637 40.8417 116.698 40.8206C116.758 40.7982 116.805 40.7624 116.841 40.7119C116.875 40.661 116.892 40.6002 116.892 40.5281C116.892 40.4036 116.843 40.3131 116.746 40.2565C116.676 40.2141 116.545 40.1925 116.354 40.1925H116.18V40.8533V40.8529ZM117.769 39.5976H119.547V40.2006H118.961V42.8049H118.338V40.2006H117.77V39.5976H117.769ZM121.48 39.517C121.934 39.517 122.326 39.6816 122.652 40.0099C122.98 40.3385 123.143 40.7389 123.143 41.2109C123.143 41.679 122.982 42.0751 122.659 42.3992C122.337 42.7232 121.945 42.8855 121.484 42.8855C121.001 42.8855 120.6 42.7186 120.282 42.3857C119.962 42.0532 119.802 41.6575 119.802 41.1997C119.802 40.8938 119.877 40.6113 120.025 40.3539C120.174 40.0969 120.378 39.8931 120.638 39.7428C120.899 39.5926 121.179 39.517 121.479 39.517H121.48ZM121.471 40.1158C121.174 40.1158 120.925 40.2195 120.724 40.4256C120.521 40.6317 120.42 40.8941 120.42 41.2124C120.42 41.5669 120.548 41.8474 120.802 42.0539C121 42.2154 121.226 42.2959 121.482 42.2959C121.771 42.2959 122.017 42.1907 122.22 41.9815C122.424 41.7723 122.525 41.5145 122.525 41.2082C122.525 40.903 122.423 40.6445 122.218 40.4329C122.013 40.2218 121.764 40.1158 121.471 40.1158ZM124.769 39.5976H125.387L126.426 42.2335H126.783V43.2831H126.192V42.8049H123.971V43.2831H123.38V42.2335H123.738L124.769 39.5976H124.769ZM125.084 40.4414L124.378 42.2335H125.79L125.083 40.4414H125.084ZM128.693 39.5174C129.148 39.5174 129.539 39.6819 129.866 40.0102C130.193 40.3389 130.357 40.7393 130.357 41.2113C130.357 41.6794 130.196 42.0755 129.872 42.3996C129.55 42.7236 129.158 42.8858 128.698 42.8858C128.215 42.8858 127.814 42.719 127.495 42.3861C127.176 42.0536 127.016 41.6578 127.016 41.2001C127.016 40.8941 127.09 40.6117 127.239 40.3543C127.388 40.0973 127.592 39.8935 127.851 39.7432C128.112 39.5929 128.393 39.5174 128.693 39.5174H128.693ZM128.684 40.1162C128.388 40.1162 128.138 40.2198 127.937 40.426C127.735 40.6321 127.634 40.8945 127.634 41.2128C127.634 41.5673 127.761 41.8478 128.016 42.0543C128.213 42.2158 128.44 42.2963 128.695 42.2963C128.984 42.2963 129.23 42.1911 129.434 41.9819C129.637 41.7727 129.739 41.5149 129.739 41.2086C129.739 40.9034 129.636 40.6449 129.431 40.4333C129.227 40.2222 128.977 40.1162 128.684 40.1162ZM130.934 39.598H131.556V40.8086H132.631V39.598H133.249V42.8053H132.631V41.3981H131.556V42.8053H130.934V39.598ZM133.671 39.598H135.449V40.201H134.862V42.8053H134.24V40.201H133.671V39.598H133.671ZM137.381 39.5174C137.836 39.5174 138.227 39.6819 138.554 40.0102C138.881 40.3389 139.045 40.7393 139.045 41.2113C139.045 41.6794 138.884 42.0755 138.56 42.3996C138.238 42.7236 137.846 42.8858 137.386 42.8858C136.903 42.8858 136.502 42.719 136.183 42.3861C135.864 42.0536 135.704 41.6578 135.704 41.2001C135.704 40.8941 135.778 40.6117 135.927 40.3543C136.075 40.0973 136.28 39.8935 136.539 39.7432C136.8 39.5929 137.08 39.5174 137.381 39.5174H137.381ZM137.372 40.1162C137.076 40.1162 136.826 40.2198 136.625 40.426C136.423 40.6321 136.322 40.8945 136.322 41.2128C136.322 41.5673 136.449 41.8478 136.703 42.0543C136.901 42.2158 137.128 42.2963 137.383 42.2963C137.672 42.2963 137.918 42.1911 138.121 41.9819C138.325 41.7727 138.427 41.5149 138.427 41.2086C138.427 40.9034 138.324 40.6449 138.119 40.4333C137.914 40.2222 137.665 40.1162 137.372 40.1162ZM139.622 42.8053V39.598H140.129C140.424 39.598 140.639 39.6164 140.776 39.6546C140.969 39.7058 141.122 39.8002 141.237 39.9382C141.351 40.0765 141.409 40.2399 141.409 40.4275C141.409 40.5497 141.382 40.6606 141.331 40.7601C141.28 40.8599 141.195 40.9539 141.079 41.0406C141.273 41.1323 141.416 41.2459 141.506 41.3839C141.597 41.5207 141.642 41.6833 141.642 41.8709C141.642 42.0513 141.594 42.215 141.501 42.363C141.407 42.5109 141.287 42.6219 141.139 42.6951C140.991 42.7687 140.787 42.8053 140.527 42.8053H139.622H139.622ZM140.231 40.1786V40.8579H140.368C140.52 40.8579 140.633 40.8267 140.708 40.7631C140.781 40.7007 140.818 40.6152 140.818 40.5069C140.818 40.4063 140.782 40.3266 140.713 40.2672C140.642 40.2083 140.536 40.1786 140.392 40.1786H140.231ZM140.231 41.4028V42.2246H140.386C140.643 42.2246 140.817 42.1927 140.907 42.1287C140.997 42.0647 141.042 41.9715 141.042 41.8493C141.042 41.7118 140.99 41.6024 140.884 41.5226C140.779 41.4432 140.604 41.4028 140.36 41.4028H140.231H140.231Z" fill="#808080"/>
</g>
<defs>
<clipPath id="clip0_30_33">
<rect width="137" height="43" fill="white" transform="translate(11 10)"/>
</clipPath>
</defs>
</svg>